<?xml version="1.0" standalone="no"?>
<!DOCTYPE svg PUBLIC "-//W3C//DTD SVG 20010904//EN"
 "http://www.w3.org/TR/2001/REC-SVG-20010904/DTD/svg10.dtd">
<svg version="1.0" xmlns="http://www.w3.org/2000/svg"
 width="1024.000000pt" height="1024.000000pt" viewBox="0 0 1024.000000 1024.000000"
 preserveAspectRatio="xMidYMid meet">
<metadata>
Created by potrace 1.14, written by Peter Selinger 2001-2017
</metadata>
<g transform="translate(0.000000,1024.000000) scale(0.100000,-0.100000)"
fill="#000000" stroke="none">
<path d="M5185 8324 c11 -8 187 -115 390 -236 204 -122 453 -272 555 -333 102
-61 223 -134 270 -162 90 -54 245 -146 505 -303 163 -98 366 -219 420 -250
101 -57 493 -295 508 -308 16 -14 17 -101 15 -1616 l-3 -1601 -83 -50 c-242
-147 -1252 -755 -1305 -786 -89 -52 -715 -427 -757 -454 -19 -12 -73 -44 -120
-72 -47 -28 -143 -86 -215 -129 -71 -44 -155 -94 -187 -112 l-56 -33 -219 134
c-120 73 -438 265 -708 426 -269 162 -539 324 -600 361 -60 37 -234 140 -385
230 -151 90 -396 236 -545 324 l-270 161 -5 1585 -5 1585 -20 -45 c-20 -44
-20 -70 -23 -1540 -2 -1087 0 -1511 8 -1555 15 -80 54 -148 110 -195 25 -21
165 -109 310 -196 146 -86 706 -422 1245 -744 539 -323 996 -596 1015 -605 21
-11 66 -20 111 -23 63 -4 85 -1 135 20 56 23 2097 1241 2464 1471 149 94 199
157 220 277 8 46 10 494 8 1555 l-3 1490 -29 63 c-41 88 -87 125 -359 288
-128 76 -682 408 -1232 738 -550 329 -1027 612 -1060 627 -33 16 -73 29 -90
29 -29 -1 -29 -1 -10 -16z"/>
<path d="M4999 8305 c-70 -38 -2347 -1407 -2476 -1488 -23 -14 -44 -31 -47
-36 -4 -6 244 141 551 326 998 601 1272 766 1628 978 193 115 359 215 370 222
26 17 7 16 -26 -2z"/>
<path d="M5083 7955 c-11 -8 -272 -166 -579 -352 -1149 -692 -1767 -1063
-1775 -1063 -5 0 -9 -628 -9 -1413 l0 -1414 143 -85 c78 -47 165 -99 192 -116
350 -214 2063 -1235 2072 -1235 6 0 40 18 75 40 35 22 225 137 423 255 198
119 556 333 795 478 239 144 541 325 670 403 376 224 428 257 434 273 3 9 6
641 6 1404 l0 1389 -57 39 c-32 21 -137 85 -233 142 -242 143 -782 466 -1509
902 -337 202 -616 368 -620 368 -4 0 -16 -7 -28 -15z m132 -603 c53 -19 689
-391 766 -450 26 -19 52 -45 58 -58 9 -21 7 -26 -16 -41 -25 -17 -84 -18 -846
-21 -831 -2 -891 0 -904 34 -17 45 34 83 427 319 432 258 416 251 515 217z
m1845 -926 c0 -6 -46 -86 -150 -261 -42 -71 -140 -238 -217 -370 -258 -441
-635 -1089 -691 -1185 -30 -52 -122 -212 -205 -355 -83 -143 -183 -316 -222
-385 -160 -279 -438 -756 -445 -763 -11 -12 -27 13 -263 423 -118 206 -253
440 -299 520 -47 80 -129 222 -183 315 -54 94 -121 208 -148 255 -27 47 -58
101 -69 120 -67 116 -429 735 -521 890 -161 270 -435 738 -453 771 l-15 29
1941 0 c1067 0 1940 -2 1940 -4z m-3773 -1051 c16 -19 101 -158 188 -307 87
-150 193 -331 235 -403 129 -218 672 -1158 758 -1313 128 -227 115 -280 -50
-193 -110 59 -1108 659 -1150 692 -20 16 -47 51 -60 77 l-23 47 -3 635 c-3
617 3 775 28 805 16 19 39 7 77 -40z m3833 19 c13 -25 15 -126 15 -729 l0
-700 -27 -45 c-38 -65 -3 -43 -708 -468 -582 -351 -628 -374 -645 -323 -14 44
-2 66 644 1181 511 881 609 1047 643 1083 41 44 56 44 78 1z"/>
<path d="M3779 6078 c11 -18 42 -70 68 -115 l48 -83 1215 -2 c668 -2 1220 -2
1226 0 6 2 32 40 59 85 26 45 57 97 67 115 l20 32 -1362 0 -1362 0 21 -32z"/>
<path d="M4090 5555 c0 -3 41 -73 91 -155 l91 -150 846 -2 847 -3 23 25 c12
14 35 48 51 75 95 168 110 198 106 205 -6 9 -2055 14 -2055 5z"/>
<path d="M4460 4925 c0 -9 64 -124 209 -375 30 -52 72 -126 94 -165 60 -105
306 -524 334 -569 l25 -38 39 58 c22 33 51 80 65 106 13 26 44 78 68 115 24
38 76 127 116 198 40 72 90 157 110 190 88 141 270 464 270 478 0 4 -78 7
-172 7 l-173 0 -27 -43 c-14 -23 -78 -132 -141 -242 -63 -110 -123 -215 -135
-234 l-20 -33 -15 23 c-8 13 -60 103 -115 199 -161 281 -185 322 -196 326 -26
9 -336 8 -336 -1z"/>
</g>
</svg>
